<?xml version="1.0" encoding="UTF-8" standalone="no"?>
<!-- Created with Inkscape (http://www.inkscape.org/) -->

<svg
   width="50"
   height="50"
   viewBox="0 0 13.229166 13.229167"
   version="1.1"
   id="svg1"
   xmlns:inkscape="http://www.inkscape.org/namespaces/inkscape"
   xmlns:sodipodi="http://sodipodi.sourceforge.net/DTD/sodipodi-0.dtd"
   xmlns="http://www.w3.org/2000/svg"
   xmlns:svg="http://www.w3.org/2000/svg">
  <sodipodi:namedview
     id="namedview1"
     pagecolor="#ffffff"
     bordercolor="#000000"
     borderopacity="0.25"
     inkscape:showpageshadow="2"
     inkscape:pageopacity="0.0"
     inkscape:pagecheckerboard="0"
     inkscape:deskcolor="#d1d1d1"
     inkscape:document-units="mm">
    <inkscape:page
       x="0"
       y="0"
       width="13.229166"
       height="13.229167"
       id="page2"
       margin="0"
       bleed="0" />
  </sodipodi:namedview>
  <defs
     id="defs1" />
  <g
     inkscape:label="Lager 1"
     inkscape:groupmode="layer"
     id="layer1">
    <path
       style="fill:#9e694f;fill-opacity:1;stroke-width:2.37266;stroke-linecap:round;stroke-linejoin:round;stroke-dashoffset:1.14;paint-order:markers fill stroke"
       d="m 0.05383861,7.6338052 c 0,0 -0.049244,0.5218021 0.042966,1.0578113 0.1288997,0.7492834 1.91071979,1.8064715 2.64244349,2.1596975 0.7304314,0.352605 3.6669696,1.239541 4.2536891,1.454491 0.6015319,0.220379 1.5253132,0.462793 2.0623952,0.506865 0.558565,0.06611 1.0097136,-0.176298 1.3534456,-0.683169 0.343733,-0.506868 1.867325,-2.6197579 2.105362,-2.9971333 0.236313,-0.374641 0.537081,-1.0137352 0.537081,-1.4985654 0,-0.4848301 -0.300765,-1.2120758 -0.300765,-1.2120758 z"
       id="path2-5"
       sodipodi:nodetypes="cssscssscc" />
    <path
       style="fill:#9e694f;fill-opacity:1;stroke-width:2.37266;stroke-linecap:round;stroke-linejoin:round;stroke-dashoffset:1.14;paint-order:markers fill stroke"
       d="M 7.1218373,3.2482951 C 5.3816917,2.5871629 4.2860445,2.4990119 2.8036982,4.1298045 1.3213521,5.7605971 -0.44027679,6.7963709 0.20422161,8.2067864 0.84871991,9.6172021 4.7501477,11.013572 7.014421,11.754863 9.0338489,12.415995 9.5924139,12.041353 10.494712,10.829278 11.39701,9.6172021 13.416438,7.6338052 12.922323,6.4437671 12.428207,5.2537293 7.1218373,3.2482951 7.1218373,3.2482951 Z"
       id="path1-3"
       sodipodi:nodetypes="csssssc" />
    <path
       style="fill:#c3835f;fill-opacity:1;stroke-width:2.37266;stroke-linecap:round;stroke-linejoin:round;stroke-dashoffset:1.14;paint-order:markers fill stroke"
       d="m 0.1074164,5.0841775 c 0,0 -0.04924358,0.5218016 0.0429665,1.0578115 C 0.27928261,6.8912721 2.0611027,7.9484597 2.7928264,8.3016872 3.5232578,8.6542911 6.459796,9.5412273 7.0465155,9.7561774 7.6480474,9.9765549 8.5718282,10.218971 9.1089103,10.263043 9.6674756,10.329156 10.118625,10.086744 10.462357,9.5798736 10.80609,9.073005 12.329682,6.9601151 12.567719,6.5827408 12.804032,6.2080992 13.1048,5.5690046 13.1048,5.0841744 c 0,-0.4848302 -0.300765,-1.2120755 -0.300765,-1.2120755 z"
       id="path2"
       sodipodi:nodetypes="cssscssscc" />
    <path
       style="fill:#67bb65;fill-opacity:1;stroke-width:2.76136;stroke-linecap:round;stroke-linejoin:round;stroke-dashoffset:1.14;paint-order:markers fill stroke"
       d="m 0.53708196,6.2593603 c 0,0 -0.70894819,0.089551 -0.23631607,1.1343001 0.47263214,1.0447503 0.0644499,3.3432006 1.18158031,2.6865006 1.1171305,-0.6567002 0.6874649,-2.3581502 1.8690454,-1.0149 1.1815802,1.34325 0.9237808,3.014851 1.3319633,2.6268 0.4081822,-0.38805 0.1933493,-0.86565 1.1815802,-1.104449 0.9882309,-0.238801 0.4296656,-0.507451 1.5038294,0.567149 1.0741639,1.0746 1.5897627,1.4925 2.3631607,0.5373 0.7733978,-0.9552 0.3007658,-2.1492 1.2675138,-2.2089 0.966747,-0.0597 0.988231,1.193999 1.31048,-0.1791 0.322249,-1.3731004 0.214832,-1.1641501 0.193349,-1.8208507 -0.02148,-0.6567 0.859331,-0.4477497 0.580049,-1.0447499 -0.279283,-0.5970001 0.04297,-0.5373003 -0.429666,-0.74625 C 12.181019,5.4832601 12.052119,5.4235602 11.278721,5.1549101 10.505323,4.88626 0.32224919,6.1996604 0.32224919,6.1996604 Z"
       id="path3" />
    <path
       style="fill:#639e6c;fill-opacity:1;stroke-width:2.40239;stroke-linecap:round;stroke-linejoin:round;stroke-dashoffset:1.14;paint-order:markers fill stroke"
       d="m 0.91600587,5.69689 c 0,0 -0.6515399,0.073754 -0.21718,0.9342041 0.43435993,0.8604514 0.0592311,2.753444 1.08589983,2.2125892 1.0266688,-0.5408553 0.6317962,-1.9421614 1.7176961,-0.8358671 1.0858999,1.1062945 0.8489759,2.4830168 1.2241049,2.1634208 0.375129,-0.3195971 0.177693,-0.7129457 1.085899,-0.90962 0.908208,-0.196675 0.394873,-0.4179337 1.382055,0.4671017 0.987182,0.8850353 1.461029,1.2292153 2.1718,0.4425183 C 10.077051,9.3845381 9.6426907,8.4011654 10.531155,8.3519968 11.419618,8.302828 11.439362,9.335369 11.735516,8.2044909 12.031671,7.073612 11.932952,7.2457024 11.913209,6.704847 11.893464,6.1639921 12.702954,6.3360824 12.446287,5.844396 12.18962,5.3527094 12.485774,5.401878 12.051414,5.229788 11.617054,5.0576976 11.498592,5.008529 10.787822,4.7872702 10.077051,4.566011 0.71856957,5.6477215 0.71856957,5.6477215 Z"
       id="path3-9" />
    <path
       style="fill:#d59767;fill-opacity:1;stroke-width:2.37266;stroke-linecap:round;stroke-linejoin:round;stroke-dashoffset:1.14;paint-order:markers fill stroke"
       d="M 7.1754151,0.6986675 C 5.4352695,0.03753533 4.3396223,-0.05061573 2.857276,1.5801769 1.3749299,3.2109696 -0.38669901,4.2467432 0.25779935,5.6571587 0.90229771,7.0675739 4.8037255,8.4639441 7.0679988,9.2052347 9.0874271,9.8663667 9.6459921,9.4917249 10.54829,8.2796497 11.450588,7.0675739 13.470016,5.0841775 12.975901,3.8941396 12.481785,2.7041016 7.1754151,0.6986675 7.1754151,0.6986675 Z"
       id="path1"
       sodipodi:nodetypes="csssssc" />
  </g>
</svg>
